<?xml version="1.0" encoding="UTF-8"?><svg id="Layer_1" xmlns="http://www.w3.org/2000/svg" width="114.004" height="66.582" viewBox="0 0 114.004 66.582"><path d="M89.37,16.278c-2.971,8.351-3.2,11.785-5.107,14.277-1.829,2.391-5.244,3.896-12.155,8.864,2.856-7.881,2.151-11.56,3.961-14.042,1.883-2.582,6.352-3.901,13.3-9.099Z" fill="#70c270"/><path d="M55.02,60.203c-2.951,0-14.197-.861-21.006-1.519.968.093-15.41-12.049-14.657-13.44,10.991,1.547,16.555.661,20.161,1.931,3.857,1.358,5.663,5.062,15.502,13.028Z" fill="#70c270"/><path d="M90.877,45.953c10.879-2.637-8.487,10.678-10.129,13.029,0,0-21.264,1.221-21.264,1.221l16.001-12.746c5.082-.564,10.245-1.308,15.392-1.504Z" fill="#70c270"/><path d="M56.925,21.273c.254-.081.538.211.694.446l5.735,17.352c-1.299,2.211-5.027,17.287-6.326,19.32-.221.103-6.31-14.779-6.437-18.792-.121-3.803,2.414-7.98,6.335-18.326Z" fill="#70c270"/><path d="M36.896,25.787c1.792,2.741,4.284,8.877,5.005,13.589l-12.296-8.588c-1.211-2.248-3.344-10.633-3.368-13.608l10.659,8.607Z" fill="#70c270"/><path d="M71.556,25.787l.561,13.581c1.03-2.03,3.429-11.221,4.286-13.533,1.719-1.202,4.847-3.075,11.513-8.325,2.396-2.387,5.052-6.09,7.647-9.493.518-.67-24.007,17.77-24.007,17.77Z" fill="#d4edd4"/><path d="M42.979,25.787L18.874,8.001c-.961-.244.506.734.565,1.663,1.688,1.439,4.787,6.411,6.235,7.401,3.591,2.457,7.535,6.056,11.221,8.721,0,0,5.005,13.589,5.005,13.589.808-4.76.936-12.673,1.078-13.589Z" fill="#d4edd4"/><path d="M111.234,39.386c-4.298,1.085-15.331,5.582-17.341,6.426-2.99,2.865-12.559,11.815-13.299,12.866l-21.098,1.525,21.001,3.662c2.109-1.682,28.219-22.826,30.736-24.479Z" fill="#1d431d"/><path d="M111.234,39.386c-.013-.021-39.683,3.97-39.678,3.903l-12.071,16.914c1.4-1.02,15.218-11.652,16.739-12.815,2.742-.226,16.025-1.336,17.56-1.482,2.901-1.261,3.868-1.608,17.451-6.52Z" fill="#d4edd4"/><path d="M34.157,58.648c-2.236-1.982-8.32-7.524-14.067-12.994,0,0-16.586-6.268-16.586-6.268,7.167,5.779,20.944,17.088,30.43,24.27l21.086-3.453-20.863-1.556Z" fill="#1d431d"/><path d="M55.02,60.203c-.218-.044-11.726-16.601-12.041-16.914-6.607-.817-26.699-3.903-39.475-3.903,5.542,2.641,11.236,3.948,16.951,6.567,7.853.698,11.452,1.031,18.476,1.475l16.089,12.775Z" fill="#d4edd4"/><path d="M57.076,2.191c.068-.8.164-1.167-.048-1.227-.318-.09-1.014.669-1.405,1.483,0,0-11.184,38.529-11.184,38.529l12.589,17.415-6.161-19.468,6.161-17.547c.068-6.058.608-13.258.048-19.184Z" fill="#1d431d"/><path d="M57.028,58.407l12.684-17.549L58.324,2.493c-.308-.936-1.032-1.534-1.297-1.528,0,5.632-.043,14.439,0,20.387.425.618,5.776,16.54,6.252,17.606-.069-.024-6.222,19.435-6.252,19.45Z" fill="#d4edd4"/><path d="M30.211,30.646c-.005,0-.252-.329-.258-.326-1.125-4.271-1.555-5.573-3.612-12.736-.094-.326-2.301-2.93-7.772-9.583.055,1.265,3.482,10.7,8.571,27.365,4.012.833,10.674,3.31,14.759,4.006l-11.687-8.726Z" fill="#1d431d"/><path d="M95.512,8.052c-.605.603-4.163,5.25-7.358,9.236-2.083,7.128-2.318,7.628-3.938,13.156l-12.058,8.937,15.088-4.035c3.403-8.396,9.438-28.463,8.266-27.295Z" fill="#1d431d"/><path d="M95.512,8.052c-1.427,1.736-4.163,5.25-7.358,9.236-2.083,7.128-2.318,7.628-3.938,13.156" fill="#1d431d"/></svg>