<?xml version="1.0" encoding="UTF-8"?><svg id="Layer_1" xmlns="http://www.w3.org/2000/svg" width="212.333" height="128.333" viewBox="0 0 212.333 128.333"><path d="M63.533,8.289c5.395,6.674-3.733,27.896-4.578,36.333-.603,6.027-1.269,29.019,5.126,31.72,12.959,5.475,12.611-25.539,11.512-32.602-1.725-11.08-17.588-25.368-3.787-37.268,13.757-11.862,16.948,3.086,18.736,14.319,3.316,20.83-4.796,32.079-6.587,50.83-1.325,13.871,4.012,41.145-14.303,45.689-22.184,5.503-25.999-28.727-26.809-43.82-.46-8.583,3.228-30.56-.582-36.414-2.558-3.93-5.475-.764-6.219,2.632-5.291,24.14,10.008,51.572,6.551,73.551-3.237,20.579-33.782,19.724-33.65-4.651.098-18.178,18.122-38.883,14.822-60.047-.17-1.09-1.479-5.221-2.932-4.073-3.055,2.413-.064,17.88-9.946,21.075C-3.161,70.104-1.009,38.332,5.84,30.507,10.38,25.318,45.369,6.982,52.414,6.091c3.231-.409,8.925-.516,11.119,2.198Z"/><path d="M94.548,1.214c28.907-6.651,51.045,34.924,28.789,53.789-1.694,1.436-5.065,1.918-5.47,4.06-.048.251.037.51.173.727,4.974,7.975,5.173,17.369,8.939,25.565,3.855,8.389,16.967,16.713,9.719,26.008-6.171,7.914-18.642.954-23.299-5.427-10.053-13.775-2.917-24.641-4.515-38.485-.416-3.6-2.826-5.242-4.863-1.765-7.711,13.16,7.148,33.183,3.365,45.367-2.208,7.112-15.327,6.972-18.612-.493-4.651-10.57-3.689-29.49-1.645-40.766,3.025-16.682,9.651-30.375,6.447-48.036-1.028-5.665-8.022-18.475.973-20.544ZM106.987,44.832c7.459,4.59,16.062-16.273,7.809-23.287-10.832-9.205-12.312,20.516-7.809,23.287Z"/><path d="M188.076,41.245c-7.265,7.296,10.924,18.022,14.783,22.23,18.274,19.924,5.247,67.798-23.414,55.414-18.49-7.989-20.746-49.145-4.091-48.779,9.588.211,6.482,11.731,7.694,17.176,1.732,7.78,10.49,4.514,9.801-4.771-1.085-14.628-23.477-19.695-20.927-39.933,1.071-8.497,10.345-21.993,19.962-21.136,13.073,1.165,25.831,20.435,16.812,31.919-2.6,3.31-7.393,4.044-9.738.011-1.696-2.917-3.56-19.484-10.882-12.13Z"/><path d="M147.613,38.594c-.026.775.697,1.384,1.447,1.188,8.159-2.13,3.507-16.901,3.979-22.987.852-11.006,12.282-10.091,15.853-.353,3.156,8.607,1.761,15.748-2.524,23.592-1.785,3.268-9.459,10.4-9.567,11.501-.271,2.766,2.729,5.847,3.525,8.473,2.893,9.537.794,19.709,1.521,29.479.557,7.484,8.461,29.68-3.57,30.488-2.255.151-8.305-2.379-9.967-3.951-8.256-7.803-.19-32.152.512-42.537.161-2.388,1.141-14.673-3.017-12.018-5.34,3.409,1.676,25.203-3.203,30.292-3.608,3.764-10.367-2.171-12.317-5.712-8.73-15.856,5.458-32.205,5.631-47.553.097-8.624-13.837-38.555,3.323-36.47,16.51,2.007,8.604,29.768,8.375,36.568Z"/><path d="M172.508,28.544c-1.119-5.584-.428-11.465-2.917-16.713-.38-.802.017-1.757.854-2.052,10.784-3.803,14.867,17.041,3.874,19.947-.821.217-1.644-.35-1.81-1.183Z"/></svg>