<?xml version="1.0" encoding="UTF-8"?><svg id="Layer_1" xmlns="http://www.w3.org/2000/svg" width="116.227" height="66.582" viewBox="0 0 116.227 66.582"><path d="M55.606,59.792c.241.421.006,1.184-.549,1.162l-20.251-2.27-13.659-11.474c-.227-.185-.314-1-.224-1.092.105-.107,2.538-.022,2.992.001,5.237.264,10.543.81,15.744,1.26l15.946,12.413Z" fill="#0d280f"/><path d="M91.772,46.187c.571-.022,3.616-.434,3.401.524-.022.099-1.203,1.226-1.432,1.442-3.872,3.65-8.503,6.915-12.472,10.507l-20.411,2.251-.641-.59.489-.67,15.571-12.194c5.082-.564,10.347-1.074,15.494-1.27Z" fill="#0d280f"/><path d="M57.699,21.488c.254-.081.556-.003.712.232l5.752,17.099c-1.894,6.053-3.279,12.501-5.334,18.482-.29.843-.621,2.427-1.518.913l-5.501-19.385,5.504-16.764c.067-.204.175-.51.384-.577Z" fill="#0d280f"/><path d="M70.503,38.94c-.198.197-4.87-1.811-5.137-2.163l-5.632-16.38-.927-.748c.404-5.482-.672-12.076-.042-17.425.205-1.744,2.029-2.077,2.576-.413l9.163,37.128Z" fill="#aeb7a3"/><path d="M42,41.335c.108.415-.172.478-.357.718-.415.54-3.154,3.253-3.599,3.341l-16.528-1.15-2.088.634c-4.801-2.441-11.235-3.884-15.839-6.444-1.609-.895-1.572-2.09.197-2.614l38.214,5.515Z" fill="#aeb7a3"/><path d="M45.357,39.181L54.519,2.052c.51-1.616,2.358-1.721,2.577.173.619,5.356-.43,11.93-.053,17.415l-1.271,1.601-5.178,15.398c-.678,1.028-4.101,1.684-5.237,2.542Z" fill="#3b5333"/><path d="M32.661,64.772c-9.487-7.182-19.515-13.713-28.955-20.953-1.374-1.054-5.171-3.374-1.273-3.998l16.324,6.667c.701.74.739,1.786,1.686,2.383l12.218,10.521v5.381Z" fill="#3b5333"/><path d="M73.857,41.336l38.235-5.484c1.502-.007,2.075,1.69.739,2.425l-16.361,6.647-1.912-.705-16.504,1.174c-1.548-1.048-2.909-2.658-4.196-4.058Z" fill="#aeb7a3"/><path d="M83.438,64.533v-5.381l12.703-10.754c.665-.469.558-1.187.863-1.825l16.12-6.568c1.073-.369,1.96.009,2.119,1.172l-31.805,23.357Z" fill="#3b5333"/><path d="M70.504,22.682l22.916-16.701c1.415-1.068,2.794.064,1.959,1.717-.369.731-5.73,8.165-6.197,8.4-.439.221-1.084.065-1.522.394l-9.669,6.848c-.729.193-5.973-.041-6.879-.192-.283-.047-.566-.142-.608-.465Z" fill="#aeb7a3"/><path d="M21.322,5.507l23.788,17.291c.006.567-2.685.323-3.226.361-1.349.095-2.794.507-4.204.128-3.285-1.844-6.462-5.05-9.671-6.846-.47-.263-1.015-.16-1.473-.443-1.494-.92-4.513-6.957-6.2-8.397-.425-1.029-.034-1.787.987-2.095Z" fill="#aeb7a3"/><polygon points="88.945 17.896 84.978 30.554 72.9 39.419 78.162 25.422 88.945 17.896" fill="#0d280f"/><path d="M37.623,25.374c1.292,4.232,3.752,8.702,4.933,12.894.107.381.212.75.162,1.151l-11.614-8.61c-.773-.818-3.053-8.442-3.537-10.101-.133-.457-.82-2.596-.652-2.814l10.708,7.48Z" fill="#0d280f"/><path d="M26.19,35.593c-.425.405-.864-1.296-.959-1.55-2.963-7.844-5.285-15.954-8.276-23.793-.463-1.477.604-2.395,1.951-1.699l6.206,8.596c-.043.537-.155.911-.016,1.473.948,3.831,2.644,7.529,3.635,11.355l-2.541,5.617Z" fill="#3b5333"/><path d="M89.668,35.593l-2.614-5.616c.914-3.658,2.5-7.25,3.462-10.874.183-.691.002-1.363.164-1.989.124-.481,5.204-7.468,5.809-8.071,1.172-1.168,2.268-.971,2.419.726-2.673,7.506-5.107,15.103-7.801,22.6-.127.352-1.165,3.432-1.439,3.224Z" fill="#3b5333"/><polygon points="76.251 25.071 72.236 36.005 71.703 36.312 69.068 24.593 76.251 25.071" fill="#4a5e4b"/><polygon points="46.791 24.593 43.681 36.548 39.367 25.072 46.791 24.593" fill="#4a5e4b"/><path d="M81.761,60.467v4.664c0,.075-.315.389-.493.264l-15.557-3.135,16.05-1.794Z" fill="#3b5333"/><path d="M63.32,55.204l8.964-12.906c.777.971,2.363,2.013,3.024,2.973.145.21.355.333.124.611l-12.111,9.321Z" fill="#4a5e4b"/><polygon points="34.337 60.467 50.387 62.261 34.337 65.49 34.337 60.467" fill="#3b5333"/><path d="M44.153,42.292l8.387,12.672-12.215-9.091c-.13-.193,2.982-3.18,3.228-3.349.202-.139.251-.327.6-.232Z" fill="#4a5e4b"/><polygon points="50.144 39.18 54.215 54.008 45.357 40.972 50.144 39.18" fill="#3b5333"/><path d="M70.503,40.858l-8.859,13.151,4.189-14.592c.21-.319.327-.196.608-.144,1.261.236,2.715,1.405,4.062,1.585Z" fill="#4a5e4b"/><path d="M39.127,39.179c-3.527-.494-7.112-.851-10.62-1.471-.375-.066-1.486-.06-1.345-.547.114-.395,2.451-5.146,2.743-5.151l9.222,7.168Z" fill="#3b5333"/><polygon points="88.707 37.504 76.253 39.178 85.955 32.012 88.707 37.504" fill="#3b5333"/></svg>