<?xml version="1.0" encoding="UTF-8"?><svg id="Layer_1" xmlns="http://www.w3.org/2000/svg" width="130.153" height="30.728" viewBox="0 0 130.153 30.728"><path d="M66.01,4.328c2.474.335,5.448,2.214,6.52,4.509,2.523,5.406-2.154,10.457-7.597,10.372-.113.462.169.462.402.675.84.765,3.492,3.164,4.508,3.164h13.537v7.68h-13.537c-1.098,0-3.603-1.253-4.442-2.031-2.096-1.946-3.76-7.229-5.652-8.258-2.111-1.148-1.077,1.123-1.037,2.239.093,2.601.077,5.212.23,7.81h-7.667c.576-8.731.576-17.431,0-26.16h14.735ZM58.462,15.368h5.87c.276,0,1.42-.89,1.662-1.215,1.065-1.429.666-3.259-.834-4.175-.339-.207-1.719-.61-2.026-.61h-4.433l-.24,6Z"/><path d="M130.102,12.968c-.627-.109-1.058-.581-1.681-.836-3.055-1.25-9.035-1.965-12.228-1.216-2.8.657-2.378,1.995.018,2.886,4.057,1.51,12.81,1.81,13.784,7.313,1.887,10.66-13.655,10.225-20.267,8.781-.935-.204-2.117-.409-2.867-.968v-7.08c3.857,1.77,8.79,2.627,13.032,2.134,2.28-.265,4.339-1.502,1.269-2.9-5.027-2.288-15.32-1.49-14.275-10.128.976-8.069,15.165-7.467,20.819-6.027.799.204,1.805.408,2.395.961v7.08Z"/><path d="M83.86,4.328l-.477,11.04c5.482-.782,6.725-6.305,6.706-11.04h7.667c-.4,5.885-3.304,11.166-9.107,13.08,5.839,1.912,8.72,7.145,9.107,13.08h-7.667c.077-4.673-1.211-10.198-6.586-11.043-.289-.009-.027,1.923-.123,1.923h-6.589l-.599-17.04h7.667Z"/><path d="M23.002,4.328v6l-7.908-.961c-.55,7.03-.165,14.099.241,21.121h-7.907l.489-5.15c-.003-3.126-.008-6.295-.02-9.36-.009-2.203.028-4.411.012-6.611l-7.908.961v-6h23.002Z"/><path d="M32.106,4.328c-.278,2.609-.759,5.67-.48,8.281.341,3.195,3.154,3.759,5.883,3.491,5.168-.506,3.25-8.283,2.983-11.772h7.907c.122.968-.401,1.833-.477,2.762-.227,2.781.485,5.6-.603,8.276-3.097,7.616-18.932,7.642-22.039,0-1.354-3.33.006-7.526-1.08-11.038h7.907Z"/><path d="M46.961,23.768v6.48l-5.381-.49c-5.329-.052-10.649.459-15.943.97v-7.68c7.029.935,14.21,1.185,21.324.72Z"/><path d="M100.631,10.569c.072-.399-.108-2.03.012-2.151.041-.041.823-.058,1.14-.174,1.382-.507,1.782-1.066,2.203-2.473C99.07,7.241,97.816.126,102.918.002c6.486-.159,3.606,11.744-2.288,10.568Z"/></svg>